<svg width="125" height="41" viewBox="0 0 125 41" fill="none" xmlns="http://www.w3.org/2000/svg">
<path d="M30.1826 35.802H30.1842V33.9409L30.1826 33.9425V35.802Z" fill="#FF6634"/>
<path d="M36.7231 20.6184V31.5735C38.8247 28.3606 39.9514 24.6045 39.9514 20.6749V20.6184H36.7231Z" fill="#FF6634"/>
<path d="M7.10138 31.3752C7.09331 31.3655 7.08605 31.3566 7.07798 31.3469L7.07636 31.3453C4.67372 28.4455 3.22827 24.7258 3.22827 20.6751C3.22827 11.4689 10.6961 3.97285 19.8918 3.92846V0.700195C14.5877 0.721179 9.60329 2.79776 5.85124 6.55062C2.0782 10.3237 0 15.3396 0 20.6751C0 25.482 1.68596 30.029 4.77945 33.6414C4.77945 33.6422 4.78026 33.643 4.78106 33.6439C4.78914 33.6527 4.79721 33.6624 4.80447 33.6713L4.81173 33.664L7.10138 31.3752Z" fill="#FF6634"/>
<path d="M9.33128 33.6031L7.0376 35.8968C8.90273 37.4875 11.0156 38.7037 13.2851 39.5084V36.0283C11.8534 35.402 10.5257 34.5812 9.33451 33.5999L9.33128 33.6031Z" fill="#FF6634"/>
<path d="M26.633 24.2317H23.3022V40.3754C24.441 40.1866 25.554 39.8993 26.633 39.5191C26.6362 39.5183 26.6387 39.5167 26.6419 39.5159V36.0375C26.6419 36.0375 26.6362 36.0399 26.633 36.0415V24.2317Z" fill="#FF6634"/>
<path d="M19.9465 3.9834V7.09868H19.9183V7.1358H31.3399L30.6708 7.80486L28.4465 10.0299L28.403 10.0735L26.1407 12.3349L19.9183 18.5574L11.6741 26.8024C10.4183 25.0922 9.67578 22.9834 9.67578 20.7034C9.67578 15.0378 14.2631 10.423 19.9183 10.3778V7.14871C19.6059 7.15033 19.296 7.16324 18.9893 7.18584C11.9864 7.70559 6.44751 13.5697 6.44751 20.7034C6.44751 23.8736 7.54109 26.7927 9.37232 29.1042L9.37393 29.1058C10.0269 29.9314 10.7742 30.6787 11.5998 31.3317C11.5998 31.3317 11.6004 31.3322 11.6014 31.3333L13.2858 29.6489L14.4827 28.452L22.2886 20.6469L22.3169 20.6187L28.3311 14.6052L28.3715 14.5648L32.9016 10.034L33.5698 9.36573V20.6187H36.7222V3.9834H19.9465Z" fill="#FF6634"/>
<path d="M7.0072 35.8698C6.61013 35.5301 6.22516 35.1733 5.85148 34.7997C5.48669 34.4349 5.13804 34.0588 4.80472 33.6714L2.14624 36.3307L4.37536 38.5598L7.03868 35.8965C7.02899 35.8884 7.0185 35.8795 7.00882 35.8715C7.00882 35.8715 7.00828 35.8709 7.0072 35.8698Z" fill="#FF6634"/>
<path d="M30.3287 20.6194H30.2092V29.4899C30.2092 29.4899 30.21 29.4891 30.2108 29.4882V37.8817C31.2076 37.2869 32.1583 36.6017 33.0493 35.8302L33.5634 35.3701V20.6194H30.3287Z" fill="#FF6634"/>
<path d="M30.2108 29.488C30.2108 29.488 30.2108 29.4888 30.2092 29.4897V35.83H30.2108V29.488Z" fill="#FF6634"/>
<path d="M33.5635 20.6194V35.3701C33.5635 35.3701 33.5675 35.3661 33.5699 35.3637V20.6194H33.5635Z" fill="#FF6634"/>
<path d="M33.5699 20.3621H33.5635V20.6195H33.5699V20.6211L36.7223 20.6187H33.5699V20.3621Z" fill="#FF6634"/>
<path d="M19.9477 40.6502V28.4521H16.6411V40.7002H19.9348V40.6502C19.9388 40.6502 19.9436 40.651 19.9477 40.6502Z" fill="#FF6634"/>
<path d="M19.948 31.0291V40.6502C19.948 40.6502 19.9391 40.6502 19.9351 40.6502V40.7002H19.9867V28.4521H19.948V31.0291Z" fill="#FF6634"/>
<path d="M16.6413 37.0894V33.8353V30.4674V28.4521H16.6316V30.4642V33.8329V37.0878V40.3733V40.7002H16.6413V40.3749V37.0894Z" fill="#FF6634"/>
<path d="M36.7231 20.6184C36.724 20.6373 36.724 20.657 36.724 20.676V20.6184H36.7231Z" fill="#FF6634"/>
<path d="M36.7092 21.375V31.5965C36.7141 31.5893 36.7189 31.5812 36.7238 31.5739V20.6753C36.7238 20.9093 36.7189 21.1426 36.7092 21.375Z" fill="#FF6634"/>
<path d="M46.7979 6.0719V3.77651H59.2261V6.0719H54.2217V18.252H51.8022V6.0719H46.7979ZM62.7131 3.77651H65.7943L71.1295 18.252H68.4412L67.3452 15.0674H61.1828L60.0868 18.252H57.3779L62.7131 3.77651ZM61.8652 12.7926H66.6628L64.264 5.76172L61.8652 12.7926ZM78.6926 18.252L77.1624 13.1649H75.1771V18.252H72.7577V3.77651H78.1136C81.6704 3.77651 83.6349 5.34813 83.6349 8.45001C83.6349 10.8695 82.4562 12.255 79.7473 12.9167L80.7812 15.9772H83.6143V18.252H78.6926ZM77.9688 6.0719H75.1771V10.8902H77.8654C79.9954 10.8902 81.0914 10.2077 81.0914 8.45001C81.0914 6.775 80.0781 6.0719 77.9688 6.0719ZM91.116 18.5621C87.9934 18.5621 85.1397 15.543 85.1397 11.0142C85.1397 6.48549 88.0141 3.52836 92.3154 3.52836C93.8663 3.52836 95.3345 3.96263 96.6166 4.64504L95.9756 6.87839C94.8589 6.2787 93.7009 5.88579 92.4394 5.88579C89.5237 5.88579 87.6832 7.80896 87.6832 11.0142C87.6832 14.2195 89.565 16.2047 91.5502 16.2047C93.2252 16.2047 94.4867 14.7778 94.7348 12.6892H91.4262V10.3939H97.2163V18.252H95.3345V14.5504C94.8589 16.6183 93.6388 18.5621 91.116 18.5621ZM99.677 3.77651H108.859V6.0719H102.096V9.58737H108.424V11.8621H102.096V15.9566H108.859V18.252H99.677V3.77651ZM110.128 6.0719V3.77651H122.556V6.0719H117.552V18.252H115.132V6.0719H110.128Z" fill="#FF6634"/>
<path d="M54.4078 37.4589C50.2306 37.4589 47.3355 34.4397 47.3355 29.911C47.3355 25.3822 50.2306 22.3631 54.4078 22.3631C58.5643 22.3631 61.4594 25.3822 61.4594 29.911C61.4594 34.4397 58.5643 37.4589 54.4078 37.4589ZM54.4078 35.1014C57.1995 35.1014 58.9159 32.9508 58.9159 29.911C58.9159 26.8711 57.1995 24.7205 54.4078 24.7205C51.5954 24.7205 49.8791 26.8711 49.8791 29.911C49.8791 32.9508 51.5954 35.1014 54.4078 35.1014ZM74.5676 27.9671C74.5676 31.3378 72.4997 33.2817 68.9015 33.2817H66.1098V37.1487H63.6903V22.6732H68.9015C72.4997 22.6732 74.5676 24.5964 74.5676 27.9671ZM72.0034 27.9671C72.0034 25.9612 70.9281 24.9686 68.7361 24.9686H66.1098V30.9863H68.7361C70.9281 30.9863 72.0034 29.973 72.0034 27.9671ZM75.3731 24.9686V22.6732H87.8013V24.9686H82.7969V37.1487H80.3775V24.9686H75.3731ZM89.499 37.1487V22.6732H91.9184V37.1487H89.499ZM101.219 37.4589C97.0415 37.4589 94.1464 34.4397 94.1464 29.911C94.1464 25.3822 97.0415 22.3631 101.219 22.3631C105.375 22.3631 108.27 25.3822 108.27 29.911C108.27 34.4397 105.375 37.4589 101.219 37.4589ZM101.219 35.1014C104.01 35.1014 105.727 32.9508 105.727 29.911C105.727 26.8711 104.01 24.7205 101.219 24.7205C98.4064 24.7205 96.69 26.8711 96.69 29.911C96.69 32.9508 98.4064 35.1014 101.219 35.1014ZM110.501 37.1487V22.6732H112.921L119.724 33.0128V22.6732H122.144V37.1487H119.724L112.921 26.8091V37.1487H110.501Z" fill="#FF6634"/>
</svg>
